<svg xmlns="http://www.w3.org/2000/svg" width="14" height="14" viewBox="0 0 15 15" shape-rendering="geometricPrecision" text-rendering="geometricPrecision" image-rendering="optimizeQuality" fill-rule="evenodd" clip-rule="evenodd"><path d="M2 5S1 5 1 6v3c0 1 1 1 1 1 1 0 1 0 1-1V6c0-1 0-1-1-1zm11 0c-1 0-1 0-1 1v3c0 1 0 1 1 1 0 0 1 0 1-1V6c0-1-1-1-1-1zM4 5v7h1v2s0 1 1 1l1-1v-2h1v2l1 1c1 0 1-1 1-1v-2h1V5H4zm5-2V2s1 0 1 1H9zM6 3H5c0-1 1-1 1-1v1zm3-2l1-1-1 1H6L5 0l1 1C5 2 4 3 4 4h7c0-1-1-2-2-3z" fill="#fefefe"/></svg>