<svg data-name="Слой 1" xmlns="http://www.w3.org/2000/svg" viewBox="0 0 35.22 11.8"><defs><clipPath id="a"><path fill="none" d="M0 0h35.22v11.8H0z"/></clipPath></defs><g clip-path="url(#a)" fill="#191919"><path d="M30.7 2.84a.35.35 0 0 0-.33.34H31a.3.3 0 0 0-.29-.34m-13.87.77a.19.19 0 0 0 .2.21.31.31 0 0 0 .28-.2.22.22 0 0 0 0-.08v-.19c-.25 0-.49 0-.49.26m6.86-.76c-.25 0-.36.25-.36.48s.14.48.36.48.34-.19.34-.48-.1-.48-.34-.48m-2.4 0a.35.35 0 0 0-.33.34h.63a.31.31 0 0 0-.3-.34m-2.56 0a.34.34 0 0 0-.32.26.31.31 0 0 0 0 .1v.23a.25.25 0 0 0 0 .08.32.32 0 0 0 .31.25c.23 0 .36-.18.36-.46s-.12-.46-.35-.46m12.59 4.63h-1.83a.78.78 0 0 0 .26.62.92.92 0 0 0 .6.2 2.17 2.17 0 0 0 .74-.13l.1.42a2.36 2.36 0 0 1-.92.17 1.32 1.32 0 0 1-1-.38 1.34 1.34 0 0 1-.37-1 1.62 1.62 0 0 1 .34-1 1.19 1.19 0 0 1 1-.44 1 1 0 0 1 .9.44 1.53 1.53 0 0 1 .24.87 1.87 1.87 0 0 1 0 .27M28.8 3.19V4h-.35V2h.35v.84a.4.4 0 0 1 .2-.18.48.48 0 0 1 .24-.07c.24 0 .5.16.5.62V4h-.36v-.8c0-.2-.08-.36-.27-.36a.31.31 0 0 0-.28.2.43.43 0 0 0 0 .11m-.12 3.35h-.19a.58.58 0 0 0-.5.24.91.91 0 0 0-.15.54v1.43h-.61V5.97h.53v.52a1 1 0 0 1 .31-.43.71.71 0 0 1 .44-.15h.15zm-1.56-3.87h.2v-.27l.35-.1v.37h.3v.26h-.3v.63c0 .17 0 .26.18.26h.14V4a.83.83 0 0 1-.26 0 .39.39 0 0 1-.3 0 .54.54 0 0 1-.11-.39v-.72h-.2zm-.63 5.72a1.31 1.31 0 0 1-1 .42 1.22 1.22 0 0 1-1-.4 1.47 1.47 0 0 1-.36-1 1.5 1.5 0 0 1 .37-1 1.4 1.4 0 0 1 2 0 1.45 1.45 0 0 1 .35 1 1.5 1.5 0 0 1-.36 1m-2.85-4.3a.68.68 0 0 1-.7-.73.7.7 0 0 1 .73-.75.68.68 0 0 1 .7.73.7.7 0 0 1-.73.75M24 6.42h-.67v1.34c0 .33.11.5.35.5a1 1 0 0 0 .27 0v.47a1.53 1.53 0 0 1-.47.06.74.74 0 0 1-.48-.25 1.08 1.08 0 0 1-.2-.73V6.42h-.4V6h.4v-.54l.6-.18V6h.6zm-2.15 2a1.51 1.51 0 0 1-1 .33 1.87 1.87 0 0 1-1-.23L20 8a1.69 1.69 0 0 0 .88.24.87.87 0 0 0 .54-.16.55.55 0 0 0 0-.8 1.42 1.42 0 0 0-.53-.3c-.66-.24-1-.61-1-1.08a.94.94 0 0 1 .35-.77 1.37 1.37 0 0 1 .93-.3 1.87 1.87 0 0 1 .87.18l-.16.5a1.46 1.46 0 0 0-.73-.18.77.77 0 0 0-.5.16.45.45 0 0 0-.15.34.47.47 0 0 0 .17.38 2.2 2.2 0 0 0 .55.29A1.87 1.87 0 0 1 22 7a1 1 0 0 1 .23.66 1 1 0 0 1-.34.79M18.8 4.07a.48.48 0 0 1-.44-.24v.21H18V2h.36v.84a.51.51 0 0 1 .46-.23c.34 0 .59.29.58.72a.67.67 0 0 1-.64.76m-.41 4.34a1.13 1.13 0 0 1-.85.36.85.85 0 0 1-.78-.39v1.42h-.61V5.97h.53v.43a1 1 0 0 1 .92-.49 1 1 0 0 1 .81.38 1.52 1.52 0 0 1 .33 1 1.57 1.57 0 0 1-.38 1.11M15.65 4V2H16v2zm-.28 4.37a1.1 1.1 0 0 1-.84.36.82.82 0 0 1-.78-.39v1.48h-.61V5.97h.54v.43a1 1 0 0 1 .93-.49 1 1 0 0 1 .81.38 1.51 1.51 0 0 1 .32 1 1.53 1.53 0 0 1-.38 1.11M13 3.65c0-.35.31-.54.84-.53 0-.09 0-.24-.29-.24a.74.74 0 0 0-.38.1l-.07-.23a1 1 0 0 1 .51-.13.53.53 0 0 1 .58.6v.48a1.65 1.65 0 0 0 0 .34h-.33v-.16a.52.52 0 0 1-.42.19.42.42 0 0 1-.44-.42m-.75.35h-.35l-.52-1.41h.38l.23.71c0 .13.07.24.1.36 0-.12.06-.23.09-.36l.23-.71h.37zm-.13 4.67l-.36-1.12h-1.24l-.33 1.12h-.64l1.23-3.8h.75l1.23 3.8zm-4.31-.11a.63.63 0 0 1-.62.63H4.51a.63.63 0 0 1-.63-.63v-6A.63.63 0 0 1 4.51 2h2.68a.62.62 0 0 1 .62.62zm2.38-6.48h.45l.64 2h-.39l-.18-.56h-.61L9.93 4h-.37zm4.9.55V4h-.36V2.63zM14.91 2a.19.19 0 1 1 0 .38.19.19 0 1 1 0-.38m2.09.85a.77.77 0 0 0-.38.1l-.07-.23a1.08 1.08 0 0 1 .51-.13.53.53 0 0 1 .59.6v.51a1.72 1.72 0 0 0 0 .34h-.32v-.16a.5.5 0 0 1-.41.19.42.42 0 0 1-.45-.42c0-.35.32-.54.84-.53 0-.09 0-.24-.29-.24M20.21 2v2h-.36V2zm1.1.61a.62.62 0 0 1 .61.69.58.58 0 0 1 0 .15H21a.39.39 0 0 0 .44.37 1.09 1.09 0 0 0 .39-.07l.05.25a1.3 1.3 0 0 1-.49.09.67.67 0 0 1-.73-.72.7.7 0 0 1 .69-.76m3.75 0v.21a.54.54 0 0 1 .46-.25c.24 0 .5.16.5.61V4h-.36v-.8c0-.2-.07-.36-.27-.36a.32.32 0 0 0-.28.21.45.45 0 0 0 0 .12V4h-.36V2.58zm5.66 0a.62.62 0 0 1 .61.69.49.49 0 0 1 0 .15h-.94a.38.38 0 0 0 .43.37 1.1 1.1 0 0 0 .4-.07l.05.25a1.31 1.31 0 0 1-.5.09.67.67 0 0 1-.81-.74.7.7 0 0 1 .69-.76m-20.19.14c0-.12-.07-.25-.1-.36 0 .11-.06.25-.1.36l-.15.49h.51zm3.33.89v-.27c-.25 0-.49 0-.49.26a.19.19 0 0 0 .2.21.31.31 0 0 0 .29-.2m16.32 2.71a.57.57 0 0 0-.48.25.93.93 0 0 0-.18.47h1.27a.89.89 0 0 0-.12-.47.54.54 0 0 0-.49-.25m-19-.92l-.15.72-.32 1h1l-.32-1c0-.1-.1-.34-.19-.72m6.29 1a.6.6 0 0 0-.4.15.62.62 0 0 0-.24.4.67.67 0 0 0 0 .18v.46a.76.76 0 0 0 .18.51.63.63 0 0 0 .48.2A.61.61 0 0 0 18 8a1.17 1.17 0 0 0 .2-.71 1.11 1.11 0 0 0-.2-.62.65.65 0 0 0-.54-.28m8.1 0a.59.59 0 0 0-.55.32A1.35 1.35 0 0 0 25 8a.61.61 0 0 0 .55.32.63.63 0 0 0 .53-.32 1.33 1.33 0 0 0 0-1.3.6.6 0 0 0-.55-.32m-11.11 0a.65.65 0 0 0-.41.15.71.71 0 0 0-.24.4.62.62 0 0 0 0 .18v.46a.76.76 0 0 0 .18.51.62.62 0 0 0 .47.2.65.65 0 0 0 .52-.28 1.17 1.17 0 0 0 .19-.71 1.11 1.11 0 0 0-.13-.62.63.63 0 0 0-.53-.28m-7 1.54V3.25H4.26v4.68zm-1.58.28a.33.33 0 1 0 .32.32.33.33 0 0 0-.32-.32m-.35-5.44h.62a.08.08 0 0 0 .07-.07.08.08 0 0 0-.07-.08h-.62a.08.08 0 1 0 0 .15"/><path d="M1.75.41A1.34 1.34 0 0 0 .41 1.74v8.31a1.34 1.34 0 0 0 1.34 1.34h31.73a1.34 1.34 0 0 0 1.33-1.34V1.74A1.34 1.34 0 0 0 33.48.41zM33.48 11.8H1.75A1.75 1.75 0 0 1 0 10.05V1.74A1.74 1.74 0 0 1 1.75 0h31.73a1.74 1.74 0 0 1 1.74 1.74v8.31a1.74 1.74 0 0 1-1.74 1.75"/></g></svg>