<svg xmlns="http://www.w3.org/2000/svg" width="15" height="15" shape-rendering="geometricPrecision" text-rendering="geometricPrecision" image-rendering="optimizeQuality" fill-rule="evenodd" clip-rule="evenodd"><path d="M8 15H6c-2 0-3-1-3-1-1-1-1-1-1-2v-1c0-1 1-1 2-2 0 0 1 0 1-1 0 0 1 0 1-1H5c0-1-1-2-1-3s1-2 1-3c1 0 2-1 3-1 0 0 1 1 2 1 0 1 1 2 1 3s-1 2-1 3H9c0 1 1 1 1 1 0 1 1 1 1 1 1 1 2 1 2 2v1c0 1 0 1-1 2 0 0-1 1-3 1H8zM7 8C6 8 6 8 5 9c0 0-1 0-1 1-1 0-1 1-2 1v1l1 1c1 1 2 1 3 1h3c1 0 2 0 3-1l1-1v-1c-1 0-1-1-2-1 0-1-1-1-1-1-1-1-1-1-2-1H7zm2-6c0-1-1-1-1-1-1 0-2 0-2 1-1 1-1 1-1 2s0 2 1 2c0 1 1 1 2 1 0 0 1 0 1-1 1 0 1-1 1-2s0-1-1-2z" fill="#fefefe" fill-rule="nonzero"/></svg>