<?xml version="1.0" encoding="utf-8"?>
<!-- Generator: Adobe Illustrator 16.0.4, SVG Export Plug-In . SVG Version: 6.00 Build 0)  -->
<!DOCTYPE svg PUBLIC "-//W3C//DTD SVG 1.1//EN" "http://www.w3.org/Graphics/SVG/1.1/DTD/svg11.dtd" [
	<!ENTITY ns_extend "http://ns.adobe.com/Extensibility/1.0/">
	<!ENTITY ns_ai "http://ns.adobe.com/AdobeIllustrator/10.0/">
	<!ENTITY ns_graphs "http://ns.adobe.com/Graphs/1.0/">
	<!ENTITY ns_vars "http://ns.adobe.com/Variables/1.0/">
	<!ENTITY ns_imrep "http://ns.adobe.com/ImageReplacement/1.0/">
	<!ENTITY ns_sfw "http://ns.adobe.com/SaveForWeb/1.0/">
	<!ENTITY ns_custom "http://ns.adobe.com/GenericCustomNamespace/1.0/">
	<!ENTITY ns_adobe_xpath "http://ns.adobe.com/XPath/1.0/">
]>
<svg version="1.1" id="Layer_1" xmlns:x="&ns_extend;" xmlns:i="&ns_ai;" xmlns:graph="&ns_graphs;"
	 xmlns="http://www.w3.org/2000/svg" xmlns:xlink="http://www.w3.org/1999/xlink" x="0px" y="0px" width="21.958px"
	 height="22.178px" viewBox="0 0 21.958 22.178" enable-background="new 0 0 21.958 22.178" xml:space="preserve">
<metadata>
	<sfw  xmlns="&ns_sfw;">
		<slices></slices>
		<sliceSourceBounds  width="21.779" height="21.779" x="410.303" y="-308.333" bottomLeftOrigin="true"></sliceSourceBounds>
	</sfw>
</metadata>
<g>
	<g>
		<path fill-rule="evenodd" clip-rule="evenodd" fill="#B81A50" d="M13.828,11.11l7.45-7.451c0.787-0.787,0.787-2.062,0-2.849
			c-0.786-0.787-2.062-0.787-2.849,0l-7.45,7.451L3.528,0.811c-0.787-0.787-2.062-0.787-2.849,0c-0.787,0.787-0.787,2.062,0,2.849
			L8.13,11.11L0.68,18.561c-0.787,0.786-0.787,2.062,0,2.849c0.787,0.786,2.062,0.786,2.849,0l7.451-7.451l7.45,7.451
			c0.787,0.786,2.062,0.786,2.849,0c0.787-0.786,0.787-2.062,0-2.849L13.828,11.11z"/>
	</g>
</g>
</svg>
