<svg xmlns="http://www.w3.org/2000/svg" width="30" height="20" shape-rendering="geometricPrecision" text-rendering="geometricPrecision" image-rendering="optimizeQuality" fill-rule="evenodd" clip-rule="evenodd"><defs><style>.fil1{fill-rule:nonzero;fill:#dc0031}</style></defs><g id="Слой_x0020_1"><g id="_2955262224"><path fill="#fff" fill-rule="nonzero" d="M0 20h30V0H0z"/><path class="fil1" d="M20 7l10-6V0h-1L18 7zm0 6l10 7v-2l-8-5zM0 2l9 5h2L0 0zm10 11L0 20h2l11-7z"/><path d="M28 0H17v7zM13 0H2l11 7zm17 7V3l-7 4zm0 11v-5h-7zM3 20h10v-6zm14 0h10l-10-6zM0 13v5l7-5zm0-6h7L0 2z" fill="#111d7e" fill-rule="nonzero"/><path class="fil1" d="M14 0v8H0v4h14v8h3v-8h13V8H17V0z"/></g></g></svg>