<svg data-name="Слой 1" xmlns="http://www.w3.org/2000/svg" viewBox="0 0 35.22 11.8"><defs><clipPath id="a"><path fill="none" d="M0 0h35.22v11.8H0z"/></clipPath></defs><g clip-path="url(#a)" fill="#191919"><path d="M1.75.41A1.34 1.34 0 0 0 .41 1.74v8.31a1.34 1.34 0 0 0 1.34 1.34h31.73a1.34 1.34 0 0 0 1.33-1.34V1.74A1.34 1.34 0 0 0 33.48.41zM33.48 11.8H1.75A1.75 1.75 0 0 1 0 10.05V1.74A1.74 1.74 0 0 1 1.75 0h31.73a1.74 1.74 0 0 1 1.74 1.74v8.31a1.74 1.74 0 0 1-1.74 1.75"/><path d="M11.37 3a3.09 3.09 0 0 1-.13-.41 3.09 3.09 0 0 1-.14.41zm.33.41h-.23a1.25 1.25 0 0 0-.07-.27h-.33a1.25 1.25 0 0 0-.07.27h-.22A3.37 3.37 0 0 1 11 3a4.79 4.79 0 0 0 .17-.49h.28a3.91 3.91 0 0 0 .15.48c.1.29.15.45.15.47m.9-.02h-.18a2.16 2.16 0 0 0-.2-.31 1.64 1.64 0 0 1-.27-.42A1.57 1.57 0 0 1 12 3v.44h-.18v-.95h.22a1.27 1.27 0 0 0 .18.31 1.69 1.69 0 0 1 .22.39v-.7h.19v.95m.88-.44a.36.36 0 0 0-.08-.24.34.34 0 0 0-.25-.1h-.09v.65h.1a.26.26 0 0 0 .23-.1.36.36 0 0 0 .09-.21m.2 0a.56.56 0 0 1-.14.36.45.45 0 0 1-.37.15h-.3v-.95h.31a.49.49 0 0 1 .38.13.45.45 0 0 1 .12.32m.7-.24c0-.1-.06-.14-.19-.14h-.12a2.36 2.36 0 0 1 0 .29h.07c.15 0 .23-.05.23-.16m.27.67h-.21a1.73 1.73 0 0 0-.13-.32.18.18 0 0 0-.15-.06h-.08v.38h-.21v-.95h.35c.22 0 .34.07.34.23a.26.26 0 0 1-.2.25.22.22 0 0 1 .13.12 2 2 0 0 1 .15.34m.87-.42a.41.41 0 0 0-.08-.25.23.23 0 0 0-.19-.09.23.23 0 0 0-.18.09A.41.41 0 0 0 15 3a.36.36 0 0 0 .08.24.23.23 0 0 0 .19.1.22.22 0 0 0 .19-.1.36.36 0 0 0 .07-.24m.2 0a.52.52 0 0 1-.13.37.46.46 0 0 1-.34.15.42.42 0 0 1-.33-.14.49.49 0 0 1-.13-.38.53.53 0 0 1 .14-.37.43.43 0 0 1 .34-.15.42.42 0 0 1 .32.14.45.45 0 0 1 .13.34m.42.48h-.21v-.95h.21v.95M17 3a.32.32 0 0 0-.09-.24.31.31 0 0 0-.25-.1h-.08v.65h.1a.26.26 0 0 0 .23-.1A.36.36 0 0 0 17 3m.2 0a.56.56 0 0 1-.14.36.47.47 0 0 1-.37.15h-.3v-.95h.3a.5.5 0 0 1 .39.13.45.45 0 0 1 .12.32M18.27 3a4.09 4.09 0 0 1-.12-.41l-.13.41zm.34.41h-.23a2.67 2.67 0 0 0-.07-.27H18a2.67 2.67 0 0 0-.07.27h-.22s.06-.17.17-.46a3 3 0 0 0 .12-.46h.28a3.19 3.19 0 0 0 .16.48c.1.29.15.45.15.47m.68-.66c0-.1-.06-.15-.2-.15H19v.31c.18 0 .26-.06.26-.17m.19 0a.28.28 0 0 1-.13.26.51.51 0 0 1-.31.08H19v.36h-.2v-.95h.36a.45.45 0 0 1 .24.06.22.22 0 0 1 .09.19m.66.01q0-.15-.21-.15h-.11a2.91 2.91 0 0 1 0 .31h.05c.17 0 .26-.06.26-.17m.19 0a.28.28 0 0 1-.13.26.55.55 0 0 1-.32.08h-.05v.36h-.2v-.95H20a.41.41 0 0 1 .23.06.21.21 0 0 1 .1.19m1.24.23a.36.36 0 0 0-.08-.25.23.23 0 0 0-.19-.09.23.23 0 0 0-.18.09A.41.41 0 0 0 21 3a.36.36 0 0 0 .08.24.25.25 0 0 0 .2.1.21.21 0 0 0 .18-.1.36.36 0 0 0 .11-.24m.2 0a.52.52 0 0 1-.13.37.46.46 0 0 1-.34.15.42.42 0 0 1-.3-.19.49.49 0 0 1-.16-.33.53.53 0 0 1 .16-.38.45.45 0 0 1 .34-.15.42.42 0 0 1 .32.14.45.45 0 0 1 .13.34m.97.49h-.18a1.44 1.44 0 0 0-.2-.31 1.64 1.64 0 0 1-.24-.42v.73H22v-.95h.22a1.27 1.27 0 0 0 .18.31 1.69 1.69 0 0 1 .22.39v-.7h.18v.95m-8.66 3.05a1.52 1.52 0 0 1-.42 1.13 1.61 1.61 0 0 1-1.24.5 1.74 1.74 0 0 1-1.25-.5 1.71 1.71 0 0 1-.51-1.26 1.74 1.74 0 0 1 1.76-1.77 1.81 1.81 0 0 1 .69.14 1.42 1.42 0 0 1 .53.38l-.3.3a1.12 1.12 0 0 0-.92-.4 1.3 1.3 0 0 0-1.32 1.35 1.28 1.28 0 0 0 .39 1 1.3 1.3 0 0 0 .93.38 1.27 1.27 0 0 0 .94-.38 1 1 0 0 0 .29-.69h-1.23v-.4h1.64a2.29 2.29 0 0 1 0 .25m.88.98a.74.74 0 0 0 .53.23.72.72 0 0 0 .47-.23.92.92 0 0 0 0-1.22.72.72 0 0 0-.53-.23.74.74 0 0 0-.53.23A.92.92 0 0 0 15 7.5M14.66 6a1.09 1.09 0 0 1 .85-.35 1.12 1.12 0 0 1 .86.35 1.23 1.23 0 0 1 .33.88 1.23 1.23 0 0 1-.33.88 1.12 1.12 0 0 1-.86.35 1.09 1.09 0 0 1-.85-.35 1.2 1.2 0 0 1-.34-.88 1.2 1.2 0 0 1 .34-.88m2.85 1.5a.72.72 0 0 0 .53.23.74.74 0 0 0 .53-.23.85.85 0 0 0 .22-.61.85.85 0 0 0-.22-.61.74.74 0 0 0-.57-.23.72.72 0 0 0-.53.23.92.92 0 0 0 0 1.22M17.18 6a1.12 1.12 0 0 1 .82-.34 1.1 1.1 0 0 1 .85.35 1.2 1.2 0 0 1 .34.88 1.2 1.2 0 0 1-.34.88 1.1 1.1 0 0 1-.85.35 1.12 1.12 0 0 1-.86-.35 1.23 1.23 0 0 1-.33-.88 1.23 1.23 0 0 1 .37-.89m3.37 1.73a.7.7 0 0 0 .52-.23.85.85 0 0 0 .21-.61.85.85 0 0 0-.21-.61.7.7 0 0 0-.52-.23.68.68 0 0 0-.52.23.85.85 0 0 0-.22.61.85.85 0 0 0 .19.61.68.68 0 0 0 .52.23m0 1.41a1 1 0 0 1-.67-.2 1.24 1.24 0 0 1-.37-.47l.4-.17a.62.62 0 0 0 .24.32.71.71 0 0 0 .4.13.78.78 0 0 0 .57-.22.79.79 0 0 0 .2-.58v-.22a.94.94 0 0 1-.78.39 1 1 0 0 1-.78-.35A1.34 1.34 0 0 1 19.7 6a1 1 0 0 1 .78-.35.94.94 0 0 1 .78.39v-.31h.42v2.2a1.13 1.13 0 0 1-.35.9 1.2 1.2 0 0 1-.84.31"/></g><path fill="#191919" d="M22.11 4.67h.43v3.38h-.43z"/><g clip-path="url(#a)" fill="#191919"><path d="M24.61 6.61a.66.66 0 0 0-.19-.38.64.64 0 0 0-.5-.18.56.56 0 0 0-.41.16.79.79 0 0 0-.25.4zM24 8.12a1.09 1.09 0 0 1-.85-.35 1.22 1.22 0 0 1-.33-.88 1.28 1.28 0 0 1 .3-.89 1 1 0 0 1 .81-.36 1.08 1.08 0 0 1 .83.33 1.33 1.33 0 0 1 .31.9V7h-1.84a.83.83 0 0 0 .24.55.69.69 0 0 0 .5.21.65.65 0 0 0 .64-.4l.38.16a1 1 0 0 1-.37.45 1.1 1.1 0 0 1-.64.18m2.8-1.89h.73a.55.55 0 0 0 .43-.18.58.58 0 0 0 0-.82.55.55 0 0 0-.43-.18h-.73zm0 1.79h-.44V4.66h1.16a1.08 1.08 0 0 1 .74.29.92.92 0 0 1 .31.72.92.92 0 0 1-.31.72 1.08 1.08 0 0 1-.74.29h-.72z"/></g><path fill="#191919" d="M28.84 4.67h.43v3.38h-.43z"/><g clip-path="url(#a)"><path d="M30.46 7.73a.73.73 0 0 0 .49-.2.64.64 0 0 0 .22-.48.86.86 0 0 0-.55-.15.74.74 0 0 0-.48.14.4.4 0 0 0-.16.32.32.32 0 0 0 .15.27.61.61 0 0 0 .33.1m-.07.39a.9.9 0 0 1-.61-.21.69.69 0 0 1-.25-.56.67.67 0 0 1 .29-.59 1.16 1.16 0 0 1 .72-.22 1.28 1.28 0 0 1 .63.14v-.06a.53.53 0 0 0-.17-.41.65.65 0 0 0-.43-.16.7.7 0 0 0-.35.09.51.51 0 0 0-.21.25l-.39-.17a.92.92 0 0 1 .31-.39 1.09 1.09 0 0 1 .63-.17 1 1 0 0 1 .73.26.9.9 0 0 1 .3.73v1.4h-.42v-.32a.84.84 0 0 1-.76.39" fill="#191919"/></g><path fill="#191919" d="M32.53 9.07h-.45l.54-1.17-.95-2.17h.47l.69 1.67h.01l.67-1.67h.47l-1.45 3.34z"/><g clip-path="url(#a)" fill="#191919"><path d="M2.61 6.3V3.06a.52.52 0 0 1 .12-.36s.06-.05.11 0L5 4.92l1.44 1.44v.12L3 9.94a.12.12 0 0 1-.19 0 .44.44 0 0 1-.17-.37V6.3zM3 2.58a.43.43 0 0 1 .21.06l4.47 2.49c.07 0 .07 0 0 .11-.33.32-.66.65-1 1h-.11l-3.5-3.61m.29 7.28l3.22-3.26c.07-.06.1-.05.16 0l.82.84c.05 0 .06.07 0 .1L3.42 9.87h-.06M9.5 6.33a.37.37 0 0 1-.15.27l-.21.13-1.25.69a.1.1 0 0 1-.14 0c-.29-.31-.59-.61-.89-.91 0 0-.05-.07 0-.11l1-1h.12l1.28.6a.41.41 0 0 1 .24.32"/></g></svg>