<svg xmlns="http://www.w3.org/2000/svg" viewBox="0 0 85 85"><path d="M42.5 46c-4.7 0-8.4 3.8-8.4 8.4 0 2.3 1 4.5 2.6 6.1v7.6c0 3.2 2.6 5.8 5.8 5.8 3.2 0 5.8-2.6 5.8-5.8v-7.6c1.7-1.6 2.6-3.8 2.6-6.1.1-4.7-3.7-8.4-8.4-8.4zm3 11.6c-.8.8-1.3 1.8-1.3 2.9v7.7c0 .9-.8 1.7-1.7 1.7s-1.7-.8-1.7-1.7v-7.7c0-1.1-.5-2.2-1.3-2.9-.9-.8-1.4-2-1.4-3.2 0-2.4 2-4.4 4.4-4.4 2.4 0 4.4 2 4.4 4.4 0 1.2-.5 2.3-1.4 3.2z"/><path d="M67.3 34.9h-6.1V18.6C61.1 8.4 52.8 0 42.5 0S23.9 8.4 23.9 18.6v16.2h-6.1c-3.4 0-6.1 2.8-6.1 6.1v37.9c0 3.4 2.8 6.1 6.1 6.1h49.5c3.4 0 6.1-2.8 6.1-6.1V41c0-3.4-2.8-6.1-6.1-6.1zM28 18.6c0-8 6.5-14.5 14.5-14.5S57 10.6 57 18.6v16.2H28V18.6zm41.3 60.3c0 1.1-.9 2-2 2H17.8c-1.1 0-2-.9-2-2V41c0-1.1.9-2 2-2h49.5c1.1 0 2 .9 2 2v37.9z"/></svg>