<?xml version="1.0" encoding="utf-8"?>
<!-- Generator: Adobe Illustrator 16.0.4, SVG Export Plug-In . SVG Version: 6.00 Build 0)  -->
<!DOCTYPE svg PUBLIC "-//W3C//DTD SVG 1.1//EN" "http://www.w3.org/Graphics/SVG/1.1/DTD/svg11.dtd" [
	<!ENTITY ns_extend "http://ns.adobe.com/Extensibility/1.0/">
	<!ENTITY ns_ai "http://ns.adobe.com/AdobeIllustrator/10.0/">
	<!ENTITY ns_graphs "http://ns.adobe.com/Graphs/1.0/">
	<!ENTITY ns_vars "http://ns.adobe.com/Variables/1.0/">
	<!ENTITY ns_imrep "http://ns.adobe.com/ImageReplacement/1.0/">
	<!ENTITY ns_sfw "http://ns.adobe.com/SaveForWeb/1.0/">
	<!ENTITY ns_custom "http://ns.adobe.com/GenericCustomNamespace/1.0/">
	<!ENTITY ns_adobe_xpath "http://ns.adobe.com/XPath/1.0/">
]>
<svg version="1.1" id="Layer_1" xmlns:x="&ns_extend;" xmlns:i="&ns_ai;" xmlns:graph="&ns_graphs;"
	 xmlns="http://www.w3.org/2000/svg" xmlns:xlink="http://www.w3.org/1999/xlink" x="0px" y="0px" width="286px" height="56px"
	 viewBox="0 0 286 56" enable-background="new 0 0 286 56" xml:space="preserve">
<metadata>
	<sfw  xmlns="&ns_sfw;">
		<slices></slices>
		<sliceSourceBounds  x="278.776" y="-320.433" width="284.514" height="46.577" bottomLeftOrigin="true"></sliceSourceBounds>
	</sfw>
</metadata>
<g>
	<g>
		<path fill="#FFFFFF" d="M36.91,27.315l5.463-6.333l-5.031-5.737h1.883l4.848,5.681v-5.681h1.503v5.681l4.868-5.681h1.881
			l-5.049,5.737l5.484,6.333h-1.883l-4.577-5.428l-0.725,0.831v4.597h-1.503v-4.597l-0.722-0.831l-4.58,5.428H36.91z"/>
	</g>
	<g>
		<path fill="#FFFFFF" d="M56.951,26.572l0.634-1.193c0.434,0.451,0.978,0.813,1.647,0.813c0.958,0,1.355-0.472,2.025-1.718
			l0.217-0.418l-4.633-8.811h1.721l3.781,7.473l3.782-7.473h1.72l-5.266,9.934c-0.76,1.43-1.556,2.352-3.275,2.352
			C58.291,27.53,57.386,27.115,56.951,26.572z"/>
	</g>
	<g>
		<path fill="#FFFFFF" d="M73.047,27.315v-12.07h4.85c2.423,0,3.782,1.665,3.782,3.636c0,1.974-1.394,3.636-3.782,3.636h-3.348
			v4.798H73.047z M80.123,18.881c0-1.355-0.978-2.298-2.408-2.298h-3.167v4.597h3.167C79.145,21.179,80.123,20.24,80.123,18.881z"/>
	</g>
	<g>
		<path fill="#FFFFFF" d="M95.856,27.315v-5.537h-7.058v5.537h-1.503v-12.07h1.503v5.192h7.058v-5.192h1.501v12.07H95.856z"/>
	</g>
	<g>
		<path fill="#FFFFFF" d="M112.422,27.315l-1.068-2.679h-6.008l-1.068,2.679h-1.718l4.849-12.07h1.864l4.868,12.07H112.422z
			 M108.351,16.8l-2.57,6.498h5.12L108.351,16.8z"/>
	</g>
	<g>
		<path fill="#FFFFFF" d="M118.51,26.192c1.448,0,2.262-0.796,2.769-4.886l0.743-6.062h7.382v12.07h-1.501V16.583h-4.542
			l-0.597,4.833c-0.651,5.301-2.1,6.115-4.252,6.115V26.192z"/>
	</g>
</g>
<g>
	<polygon fill="#FFFFFF" points="18.488,16.193 0.776,16.193 0.776,30.583 	"/>
</g>
<g>
	<path fill="#FFFFFF" d="M26.659,14.916h-3.018c0-4.038-3.284-7.323-7.322-7.323c-4.037,0-7.323,3.286-7.323,7.323H5.979
		c0-5.702,4.639-10.341,10.341-10.341C22.021,4.575,26.659,9.214,26.659,14.916z"/>
</g>
<g>
	<g>
		<path fill="#FFFFFF" d="M19.563,37.166c0,1.303-0.328,2.285-0.982,2.946c-0.656,0.661-1.447,0.991-2.377,0.991h-1.61v-0.57
			l-4.074,3.039v5.436c-0.363,0.072-0.725,0.167-1.086,0.285c-0.363,0.117-0.743,0.284-1.141,0.501v1.033h8.365v-1.033
			c-0.308-0.144-0.625-0.286-0.95-0.431c-0.327-0.145-0.698-0.26-1.114-0.35v-6.362h2.2c0.489,1.261,1.055,2.541,1.697,3.845
			c0.643,1.306,1.381,2.452,2.213,3.441l1.168,0.89h4.536v-0.924l-1.304-0.864c-0.906-1.096-1.765-2.233-2.58-3.412
			c-0.815-1.178-1.584-2.334-2.309-3.465c1.104-0.419,1.973-1.047,2.607-1.884c0.634-0.837,0.951-1.911,0.951-3.221
			c0-0.911-0.168-1.706-0.502-2.389c-0.074-0.148-0.178-0.271-0.264-0.41l-3.467,2.587C19.546,36.954,19.563,37.051,19.563,37.166z"
			/>
	</g>
	<g>
		<path fill="#FFFFFF" d="M44.481,48.124c-0.045-0.46-0.105-0.908-0.177-1.346c-0.072-0.433-0.145-0.821-0.217-1.166h-1.114
			l-1.439,3.449h-5.295v-7.062h3.314l1.195,2.146h0.868c0.091-0.941,0.137-1.955,0.137-3.042s-0.045-2.072-0.137-2.959h-0.868
			l-1.195,2.09h-3.314V33.58h5.079l1.25,3.206h1.112c0.145-0.761,0.262-1.576,0.354-2.444c0.09-0.869,0.153-1.711,0.19-2.527H29.938
			v1.033c0.307,0.182,0.665,0.341,1.073,0.476c0.406,0.136,0.791,0.239,1.154,0.313v15.371c-0.417,0.072-0.815,0.18-1.195,0.325
			s-0.725,0.299-1.031,0.461v1.033H44.63c0-0.398-0.014-0.833-0.04-1.304C44.562,49.053,44.527,48.585,44.481,48.124z"/>
	</g>
	<g>
		<path fill="#FFFFFF" d="M48.976,33.323c0.037,0.589,0.082,1.182,0.137,1.778c0.053,0.597,0.116,1.178,0.19,1.738
			c0.07,0.562,0.144,1.023,0.216,1.385h1.114l1.737-4.645h3.15v15.428c-0.47,0.072-0.935,0.186-1.398,0.338
			c-0.461,0.154-0.874,0.304-1.234,0.448v1.033h9.341v-1.033c-0.363-0.18-0.773-0.333-1.235-0.461
			c-0.462-0.126-0.928-0.234-1.4-0.325V33.58h3.15l1.739,4.645h1.141c0.072-0.38,0.144-0.847,0.218-1.396
			c0.072-0.555,0.136-1.13,0.19-1.727c0.055-0.597,0.099-1.186,0.136-1.765c0.036-0.579,0.055-1.086,0.055-1.522H48.921
			C48.921,32.233,48.94,32.734,48.976,33.323z"/>
	</g>
	<g>
		<path fill="#FFFFFF" d="M84.664,49.008L77.846,31.49h-2.01L68.83,49.008c-0.327,0.072-0.657,0.176-0.992,0.312
			c-0.336,0.136-0.648,0.295-0.937,0.475v1.033h6.708v-1.033c-0.742-0.415-1.531-0.678-2.363-0.786l1.603-4.318h6.029l1.575,4.318
			c-0.362,0.072-0.743,0.18-1.142,0.325c-0.397,0.146-0.769,0.299-1.112,0.461v1.033h8.5v-1.033c-0.271-0.18-0.59-0.339-0.951-0.475
			C85.387,49.184,85.025,49.08,84.664,49.008z M73.501,42.925l1.874-5.134l0.597-2.39h0.054l0.516,2.335l1.766,5.188H73.501z"/>
	</g>
	<g>
		<path fill="#FFFFFF" d="M90.23,32.848c0.308,0.182,0.66,0.344,1.059,0.489c0.398,0.146,0.778,0.243,1.141,0.3v15.371
			c-0.743,0.126-1.476,0.389-2.2,0.786v1.033h8.474v-1.033c-0.326-0.198-0.684-0.361-1.073-0.488
			c-0.391-0.127-0.766-0.226-1.127-0.298V33.637c0.361-0.057,0.736-0.151,1.127-0.287c0.389-0.135,0.747-0.303,1.073-0.502v-1.033
			H90.23V32.848z"/>
	</g>
	<g>
		<path fill="#FFFFFF" d="M117.607,47.433c-0.037-0.615-0.087-1.204-0.151-1.767c-0.063-0.561-0.131-1.05-0.203-1.465h-1.115
			l-1.819,4.86h-5.241V33.637c0.434-0.057,0.882-0.151,1.344-0.287c0.462-0.135,0.882-0.303,1.262-0.502v-1.033h-8.907v1.033
			c0.597,0.38,1.339,0.645,2.227,0.789v15.371c-0.326,0.054-0.675,0.144-1.046,0.27c-0.372,0.127-0.765,0.3-1.18,0.517v1.033h14.91
			c0.018-0.453,0.018-0.978,0-1.575C117.669,48.653,117.643,48.048,117.607,47.433z"/>
	</g>
	<g>
		<path fill="#FFFFFF" d="M140.555,47.933c-0.651-0.438-1.294-0.939-1.927-1.506c0.271-0.29,0.542-0.699,0.815-1.226
			c0.271-0.526,0.529-1.127,0.773-1.799c0.245-0.672,0.457-1.39,0.639-2.153c0.181-0.761,0.317-1.533,0.408-2.316
			c0.706-0.127,1.303-0.344,1.792-0.652v-1.032h-6.192v1.032c0.235,0.162,0.461,0.299,0.68,0.408c0.216,0.109,0.47,0.19,0.76,0.246
			c0.145,0.599,0.199,1.235,0.162,1.906c-0.037,0.674-0.118,1.311-0.245,1.909c-0.126,0.6-0.28,1.137-0.461,1.609
			c-0.181,0.472-0.345,0.809-0.489,1.008c-2.172-1.936-3.884-3.766-5.132-5.484c0.433-0.309,0.846-0.647,1.235-1.019
			c0.389-0.371,0.733-0.767,1.033-1.183c0.298-0.415,0.538-0.86,0.719-1.332c0.181-0.468,0.271-0.967,0.271-1.492
			c0-1.085-0.406-1.919-1.222-2.499c-0.814-0.578-1.874-0.868-3.178-0.868c-0.76,0-1.424,0.108-1.995,0.324
			c-0.57,0.219-1.051,0.504-1.439,0.856c-0.391,0.354-0.68,0.756-0.87,1.21c-0.19,0.451-0.286,0.904-0.286,1.356
			c0,0.671,0.164,1.349,0.489,2.038c0.325,0.687,0.714,1.276,1.168,1.765c-0.38,0.217-0.828,0.521-1.345,0.91
			c-0.516,0.39-1,0.855-1.453,1.397c-0.452,0.544-0.837,1.164-1.153,1.861c-0.317,0.696-0.477,1.463-0.477,2.294
			c0,0.69,0.137,1.367,0.409,2.037c0.271,0.671,0.688,1.272,1.25,1.806c0.56,0.535,1.28,0.97,2.158,1.304
			c0.878,0.335,1.924,0.503,3.137,0.503c1.305,0,2.462-0.229,3.477-0.692c1.013-0.461,1.801-0.981,2.363-1.562
			c0.47,0.472,0.95,0.856,1.439,1.155s0.913,0.558,1.276,0.774h4.722v-1.033l-1.382-0.656
			C141.85,48.773,141.208,48.371,140.555,47.933z M130.004,33.656c0.28-0.412,0.719-0.618,1.317-0.618
			c0.579,0,1.008,0.173,1.29,0.524c0.281,0.351,0.439,0.775,0.476,1.277c0.036,0.753-0.091,1.462-0.38,2.127
			c-0.291,0.662-0.743,1.227-1.358,1.693c-0.199-0.232-0.404-0.502-0.611-0.807c-0.208-0.306-0.398-0.62-0.571-0.942
			c-0.172-0.322-0.312-0.646-0.42-0.968c-0.109-0.323-0.163-0.619-0.163-0.889C129.583,34.535,129.723,34.069,130.004,33.656z
			 M133.697,48.777c-0.57,0.225-1.127,0.339-1.669,0.339c-0.616,0-1.187-0.114-1.71-0.339c-0.526-0.227-0.983-0.545-1.372-0.952
			c-0.39-0.407-0.692-0.891-0.911-1.452c-0.216-0.56-0.326-1.177-0.326-1.847c0-0.797,0.118-1.489,0.354-2.079
			c0.234-0.587,0.615-1.208,1.141-1.859c0.253,0.435,0.597,0.96,1.031,1.575c0.435,0.615,0.92,1.25,1.453,1.902
			c0.535,0.651,1.101,1.294,1.697,1.927c0.598,0.634,1.186,1.195,1.767,1.685C134.752,48.184,134.267,48.551,133.697,48.777z"/>
	</g>
	<g>
		<path fill="#FFFFFF" d="M163.673,47.433c-0.037-0.615-0.087-1.204-0.15-1.767c-0.063-0.561-0.131-1.05-0.203-1.465h-1.114
			l-1.819,4.86h-5.24V33.637c0.434-0.057,0.882-0.151,1.344-0.287c0.462-0.135,0.882-0.303,1.262-0.502v-1.033h-8.907v1.033
			c0.597,0.38,1.34,0.645,2.228,0.789v15.371c-0.327,0.054-0.676,0.144-1.047,0.27c-0.371,0.127-0.765,0.3-1.181,0.517v1.033h14.91
			c0.018-0.453,0.018-0.978,0-1.575C163.735,48.653,163.708,48.048,163.673,47.433z"/>
	</g>
	<g>
		<path fill="#FFFFFF" d="M183.35,34.272c-0.77-0.877-1.725-1.56-2.864-2.05c-1.143-0.487-2.455-0.732-3.938-0.732
			c-1.485,0-2.799,0.245-3.938,0.732c-1.141,0.49-2.101,1.173-2.88,2.05c-0.777,0.879-1.367,1.922-1.766,3.124
			c-0.396,1.205-0.597,2.514-0.597,3.926c0,1.411,0.2,2.719,0.597,3.923c0.398,1.204,0.988,2.246,1.766,3.124
			c0.779,0.878,1.739,1.56,2.88,2.05c1.14,0.489,2.453,0.733,3.938,0.733c1.483,0,2.796-0.244,3.938-0.733
			c1.14-0.49,2.095-1.172,2.864-2.05c0.769-0.878,1.354-1.92,1.751-3.124c0.398-1.204,0.598-2.512,0.598-3.923
			c0-1.412-0.199-2.721-0.598-3.926C184.704,36.194,184.118,35.151,183.35,34.272z M180.851,44.539
			c-0.153,0.987-0.402,1.84-0.748,2.553c-0.343,0.716-0.786,1.277-1.329,1.686c-0.543,0.406-1.204,0.61-1.982,0.61
			c-0.852,0-1.579-0.204-2.187-0.61c-0.606-0.408-1.104-0.97-1.494-1.686c-0.389-0.713-0.675-1.565-0.854-2.553
			c-0.182-0.986-0.272-2.059-0.272-3.217s0.068-2.232,0.205-3.219c0.135-0.987,0.37-1.839,0.705-2.554
			c0.335-0.714,0.783-1.277,1.345-1.684c0.561-0.407,1.258-0.61,2.09-0.61c0.87,0,1.608,0.203,2.215,0.61
			c0.605,0.406,1.095,0.97,1.466,1.684c0.371,0.715,0.643,1.566,0.815,2.554c0.172,0.986,0.258,2.061,0.258,3.219
			S181.005,43.553,180.851,44.539z"/>
	</g>
	<g>
		<path fill="#FFFFFF" d="M207.047,31.814h-6.653v1.033c0.27,0.146,0.597,0.29,0.977,0.435s0.778,0.263,1.195,0.354l-3.693,7.278
			l-3.884-7.278c0.435-0.092,0.814-0.21,1.141-0.354s0.614-0.288,0.869-0.435v-1.033h-8.908v1.033
			c0.308,0.163,0.646,0.316,1.018,0.462c0.372,0.146,0.765,0.253,1.182,0.327l5.486,9.261v6.11c-0.417,0.072-0.815,0.18-1.195,0.325
			s-0.724,0.299-1.031,0.461v1.033h8.364v-1.033c-0.308-0.18-0.638-0.348-0.991-0.501c-0.353-0.153-0.71-0.249-1.072-0.285v-6.14
			l5.269-9.231c0.343-0.057,0.684-0.16,1.019-0.313c0.334-0.152,0.637-0.312,0.91-0.476V31.814z"/>
	</g>
	<g>
		<path fill="#FFFFFF" d="M224.808,49.008L217.99,31.49h-2.01l-7.006,17.518c-0.327,0.072-0.657,0.176-0.991,0.312
			c-0.337,0.136-0.649,0.295-0.938,0.475v1.033h6.709v-1.033c-0.742-0.415-1.531-0.678-2.363-0.786l1.604-4.318h6.029l1.575,4.318
			c-0.363,0.072-0.743,0.18-1.143,0.325c-0.397,0.146-0.769,0.299-1.112,0.461v1.033h8.501v-1.033
			c-0.271-0.18-0.59-0.339-0.951-0.475C225.531,49.184,225.169,49.08,224.808,49.008z M213.646,42.925l1.873-5.134l0.598-2.39h0.054
			l0.516,2.335l1.767,5.188H213.646z"/>
	</g>
	<g>
		<path fill="#FFFFFF" d="M244.931,47.433c-0.036-0.615-0.087-1.204-0.15-1.767c-0.063-0.561-0.131-1.05-0.203-1.465h-1.113
			l-1.82,4.86h-5.241V33.637c0.436-0.057,0.883-0.151,1.344-0.287c0.463-0.135,0.883-0.303,1.264-0.502v-1.033h-8.908v1.033
			c0.597,0.38,1.34,0.645,2.227,0.789v15.371c-0.325,0.054-0.674,0.144-1.046,0.27c-0.371,0.127-0.765,0.3-1.181,0.517v1.033h14.91
			c0.018-0.453,0.018-0.978,0-1.575C244.993,48.653,244.966,48.048,244.931,47.433z"/>
	</g>
	<g>
		<path fill="#FFFFFF" d="M245.964,33.323c0.036,0.589,0.083,1.182,0.137,1.778s0.116,1.178,0.19,1.738
			c0.07,0.562,0.145,1.023,0.216,1.385h1.114l1.737-4.645h3.15v15.428c-0.47,0.072-0.936,0.186-1.398,0.338
			c-0.461,0.154-0.874,0.304-1.235,0.448v1.033h9.343v-1.033c-0.363-0.18-0.774-0.333-1.235-0.461
			c-0.463-0.126-0.929-0.234-1.399-0.325V33.58h3.15l1.738,4.645h1.141c0.072-0.38,0.144-0.847,0.218-1.396
			c0.072-0.555,0.136-1.13,0.19-1.727c0.054-0.597,0.099-1.186,0.136-1.765c0.035-0.579,0.054-1.086,0.054-1.522h-17.302
			C245.908,32.233,245.929,32.734,245.964,33.323z"/>
	</g>
	<g>
		<path fill="#FFFFFF" d="M278.636,31.814v1.033c0.271,0.146,0.597,0.29,0.977,0.435s0.778,0.263,1.195,0.354l-3.692,7.278
			l-3.885-7.278c0.436-0.092,0.815-0.21,1.141-0.354c0.326-0.145,0.614-0.288,0.87-0.435v-1.033h-8.909v1.033
			c0.309,0.163,0.646,0.316,1.02,0.462c0.371,0.146,0.764,0.253,1.181,0.327l5.485,9.261v6.11c-0.416,0.072-0.814,0.18-1.194,0.325
			s-0.724,0.299-1.032,0.461v1.033h8.365v-1.033c-0.309-0.18-0.638-0.348-0.991-0.501c-0.353-0.153-0.711-0.249-1.073-0.285v-6.14
			l5.27-9.231c0.344-0.057,0.684-0.16,1.018-0.313c0.336-0.152,0.639-0.312,0.911-0.476v-1.033H278.636z"/>
	</g>
	<g>
		<path fill="#FFFFFF" d="M19.29,35.442c-0.181-0.48-0.437-0.875-0.765-1.182c-0.328-0.31-0.709-0.534-1.146-0.681
			c-0.438-0.145-0.911-0.217-1.419-0.217c-0.565,0-1.02,0.055-1.366,0.163v7.007l4.946-3.688
			C19.514,36.318,19.441,35.839,19.29,35.442z"/>
	</g>
	<g>
		<path fill="#FFFFFF" d="M26.73,31.48l5.38-4.012V16.193H20.255L0.776,31.918V50.84l9.744-7.268v-9.936
			c-0.906-0.201-1.647-0.463-2.227-0.789v-1.033h2.877c0.363,0,0.775-0.009,1.236-0.026c0.461-0.018,0.946-0.041,1.453-0.067
			c0.507-0.026,1.022-0.055,1.549-0.081c0.525-0.028,1.032-0.041,1.521-0.041c0.996,0,1.914,0.113,2.756,0.34
			c0.841,0.229,1.566,0.568,2.172,1.025c0.474,0.355,0.839,0.8,1.149,1.295l1.376-1.026L26.73,31.48z"/>
	</g>
</g>
</svg>
