<svg xmlns="http://www.w3.org/2000/svg" width="270" height="43" xmlns:xlink="http://www.w3.org/1999/xlink" shape-rendering="geometricPrecision" text-rendering="geometricPrecision" image-rendering="optimizeQuality" fill-rule="evenodd" clip-rule="evenodd"><defs><style>.fil0{fill:#fefefe;fill-rule:nonzero}</style><clipPath id="id0"><path d="M0 0h270v43H0z"/></clipPath></defs><g id="Слой_x0020_1"><g id="_2236775840"><g clip-path="url(#id0)"><image width="269.999" height="42.999" xlink:href="logo_Images\logo_ImgID1.png"/></g><path class="fil0" d="M34 21l6-7-5-6h2l5 6V8h1v6l5-6h2l-5 6 6 7h-2l-5-6-1 1v5h-1v-5l-1-1-5 6zm19-1l1-1c0 1 1 1 2 1s1-1 2-2L53 8h2l4 8 4-8h2l-6 11c-1 1-1 2-3 2-1 0-2 0-3-1zm23-8c0-1-1-2-3-2h-3v5h3c2 0 3-1 3-3zm-8 9V8h5c3 0 4 2 4 4s-1 4-4 4h-3v5h-2zm22 0v-6h-7v6h-2V8h2v6h7V8h2v13zm12-11l-3 7h5l-2-7zm4 11l-1-3h-7l-1 3h-1l5-13h2l5 13h-2zm4-1c2 0 3-1 3-5l1-7h8v13h-2V10h-5v5c-1 5-2 6-5 6v-1zm13 9v3c1 0 1 0 1-1v7c-1-1-2-2-3-4-1 1-1 2-1 3 0 2 2 4 4 4v2h-1c-3 0-6-2-6-5 0-2 2-4 4-5 0-1-1-2-1-3s0-2 2-3v-1c1 0 1 0 2-1v2c-1 0-1 1-1 2zm1 14c2 0 3-1 4-2 1 1 3 2 4 2h2c1-1 2-2 2-3-1 0-1 1-2 1s-3-1-4-2c1-1 2-2 2-4v-1c1 0 2 1 3 1 0-1 1-2 1-2h-8l-1 1h2c1 1 1 2 1 2 0 1 0 2-1 3-2-2-3-4-5-6v5l3 3h-3v2zm0-12c1 0 2-1 2-2s-1-2-2-2v-2h1c2 0 3 1 3 3s-2 4-4 5v-2zM14 33v1h1c1 0 2 0 2-1 1-1 1-1 1-3v-1l3-2 1 1v2c0 1 0 2-1 3 0 1-1 2-2 2 1 1 1 2 2 3l3 3 1 1v1h-5l-1-1c0-1-1-2-2-3 0-1-1-2-1-4h-2v6s0 1 1 1h1v1H8v-1h1s0-1 1-1v-5l4-3zm28-8c0 1-1 2-1 3v2h-1l-1-3h-5v6h3l1-2h1v6h-1l-1-2h-3v6h5l1-3h1c0 1 1 1 1 1v4H28v-1h1l1-1V27h-1l-1-1v-1h14zm17 18h-9v-1h1l1-1V27h-3l-1 4h-1c-1 0-1 0-1-1v-5h16v6h-1l-2-4h-3v14l1 1h2v1zm10-7h5l-2-5v-2h-1v2l-2 5zm0 7h-6v-1h1s0-1 1-1l6-16h2l7 16s0 1 1 1h1v1h-8v-1h1s0-1 1-1l-2-4h-5l-2 4c1 0 2 1 2 1v1zm24 0h-8v-1c1 0 1 0 2-1V27h-1l-1-1v-1h8v1l-1 1h-1v14l1 1h1v1zm4-18h8v1l-1 1h-1v14h5l1-4h1l1 1v5H97v-1h1l1-1V27c-1 0-2 0-2-1v-1zm43 0h9v1h-1c-1 1-1 1-2 1v14h5l2-4h1v3s0 1 1 1v2h-15v-1c1 0 1-1 1-1h1V27s-1-1-2-1v-1zm22 9c0 1 0 2 1 3v2l2 2h4c0-1 1-1 1-2 0 0 1-1 1-2v-6c0-1-1-2-1-2 0-1-1-2-1-2-1 0-2-1-3-1 0 0-1 1-2 1 0 0 0 1-1 2v2c-1 1-1 2-1 3zm-4 0c0-1 0-3 1-4 0-1 0-2 1-3 1 0 2-1 3-2h7c1 1 2 2 3 2 1 1 1 2 2 3v8c-1 1-1 2-2 2-1 1-2 2-3 2-1 1-2 1-3 1-2 0-3 0-4-1-1 0-2-1-3-2-1 0-1-1-1-2-1-2-1-3-1-4zm31-9h7v1h-1l-1 1-5 8v6h1c0 1 0 1 1 1v1h-8v-1l1-1h1v-6l-5-8c-1 0-1 0-1-1h-1v-1h8v1h-1c0 1 0 1-1 1l4 7 3-7-1-1h-1v-1zm13 10h4l-1-4-1-3v3l-2 4zm0 8h-6v-1l1-1 7-16h2l7 16h1v2h-8v-1c1 0 1 0 1-1h2l-2-4h-6l-1 4c1 0 1 0 2 1v1zm16-18h8v1h-1l-1 1v14h5l1-4h1l1 1v5h-14v-1s0-1 1-1h1V27c-1 0-2-1-2-1v-1zm27 18h-9v-1c1 0 1 0 2-1h1V27h-3l-2 4h-1v-6h16v5s0 1-1 1h-1l-1-4h-3v14h1c0 1 1 1 1 1v1zm19-18h6v1h-1c0 1-1 1-1 1l-5 8v6h1l1 1v1h-8v-1s1 0 1-1h1v-6l-5-8s-1 0-1-1h-1v-1h8v1l-1 1 3 7 4-7c-1 0-1 0-1-1h-1v-1zM16 11H0v12zm7-2c0-4-4-8-8-8-5 0-8 4-8 8H6c0-4 4-8 9-8 4 0 8 4 8 8z"/><path class="fil0" d="M23 10h-1V9c0-2-1-3-2-5-2-1-3-2-5-2s-4 1-5 2C8 6 8 7 8 9v1H5V9c0-2 1-5 3-6 2-2 4-3 7-3 2 0 5 1 6 3 2 1 3 4 3 6v1h-1zm6 11V10H19L0 25v18l10-7v-9c-1 0-2 0-2-1v-1h10c1 1 2 1 2 1l1 1 8-6zM14 33l4-4c0-1 0-1-1-1 0-1 0-1-1-1h-2v6z"/></g></g></svg>