<svg class="svg-icon" xmlns="http://www.w3.org/2000/svg" height="12.2" width="11.4"><path d="M1.8 9.7H2v2.2a.27.27 0 0 0 .3.3h6.8a.27.27 0 0 0 .3-.3V9.7h.2a1.79 1.79 0 0 0 1.8-1.8V4.3a1.79 1.79 0 0 0-1.8-1.8h-.2V.3a.27.27 0 0 0-.3-.3H2.3a.27.27 0 0 0-.3.3v2.3h-.2A1.79 1.79 0 0 0 0 4.4V8a1.77 1.77 0 0 0 1.8 1.7zm7 1.9H2.6V9.7h6.2zM2.6.6h6.2v3.6H2.6V.6zm-2 3.7a1.22 1.22 0 0 1 1.2-1.2H2v1h-.6a.27.27 0 0 0-.3.3.27.27 0 0 0 .3.3h8.5a.27.27 0 0 0 .3-.3.27.27 0 0 0-.3-.3h-.5v-1h.2a1.22 1.22 0 0 1 1.2 1.2v3.6a1.22 1.22 0 0 1-1.2 1.2H1.8A1.16 1.16 0 0 1 .6 7.9V4.3z"/><path d="M2.3 7.9a.37.37 0 0 0 .4-.4.43.43 0 0 0-.4-.4.43.43 0 0 0-.4.4.37.37 0 0 0 .4.4zm5.8-4.7H3.3a.27.27 0 0 0-.3.3.27.27 0 0 0 .3.3h4.8a.27.27 0 0 0 .3-.3.27.27 0 0 0-.3-.3zm0-1.1H3.3a.27.27 0 0 0-.3.3.27.27 0 0 0 .3.3h4.8a.27.27 0 0 0 .3-.3.27.27 0 0 0-.3-.3z"/></svg>